<svg width="164" height="63" viewBox="0 0 164 63" fill="none" xmlns="http://www.w3.org/2000/svg">
<path d="M2.736 44V19.304H7.416V29.348H18.936V19.304H23.616V44H18.936V33.38H7.416V44H2.736ZM39.3632 44.432C37.2032 44.432 35.3432 44.084 33.7832 43.388C32.2232 42.692 31.0232 41.636 30.1832 40.22C29.3672 38.78 28.9592 36.992 28.9592 34.856V19.304H33.6392V34.712C33.6392 36.608 34.1312 38.048 35.1152 39.032C36.1232 39.992 37.5392 40.472 39.3632 40.472C41.1872 40.472 42.6032 39.992 43.6112 39.032C44.6432 38.048 45.1592 36.608 45.1592 34.712V19.304H49.8392V34.856C49.8392 36.992 49.4192 38.78 48.5792 40.22C47.7392 41.636 46.5392 42.692 44.9792 43.388C43.4192 44.084 41.5472 44.432 39.3632 44.432ZM66.026 44.432C63.506 44.432 61.346 43.988 59.546 43.1C57.77 42.212 56.402 40.832 55.442 38.96C54.506 37.064 54.038 34.628 54.038 31.652C54.038 27.308 55.094 24.092 57.206 22.004C59.318 19.916 62.258 18.872 66.026 18.872C68.066 18.872 69.902 19.22 71.534 19.916C73.19 20.612 74.498 21.668 75.458 23.084C76.442 24.476 76.934 26.252 76.934 28.412H72.146C72.146 27.212 71.882 26.204 71.354 25.388C70.85 24.548 70.142 23.912 69.23 23.48C68.318 23.048 67.274 22.832 66.098 22.832C64.466 22.832 63.11 23.156 62.03 23.804C60.95 24.428 60.146 25.364 59.618 26.612C59.114 27.86 58.862 29.408 58.862 31.256V32.048C58.862 33.92 59.114 35.48 59.618 36.728C60.146 37.976 60.938 38.912 61.994 39.536C63.074 40.16 64.442 40.472 66.098 40.472C67.346 40.472 68.438 40.268 69.374 39.86C70.31 39.428 71.03 38.804 71.534 37.988C72.062 37.148 72.326 36.128 72.326 34.928H76.934C76.934 37.088 76.454 38.876 75.494 40.292C74.534 41.684 73.226 42.728 71.57 43.424C69.938 44.096 68.09 44.432 66.026 44.432ZM92.4393 44.432C89.8713 44.432 87.6513 43.976 85.7793 43.064C83.9073 42.128 82.4673 40.712 81.4593 38.816C80.4753 36.92 79.9833 34.532 79.9833 31.652C79.9833 28.748 80.4753 26.36 81.4593 24.488C82.4673 22.592 83.9073 21.188 85.7793 20.276C87.6513 19.34 89.8713 18.872 92.4393 18.872C95.0313 18.872 97.2513 19.34 99.0993 20.276C100.971 21.188 102.399 22.592 103.383 24.488C104.391 26.36 104.895 28.748 104.895 31.652C104.895 34.532 104.391 36.92 103.383 38.816C102.399 40.712 100.971 42.128 99.0993 43.064C97.2513 43.976 95.0313 44.432 92.4393 44.432ZM92.4393 40.472C93.6873 40.472 94.7793 40.292 95.7153 39.932C96.6753 39.572 97.4793 39.044 98.1273 38.348C98.7753 37.628 99.2673 36.752 99.6033 35.72C99.9393 34.664 100.107 33.452 100.107 32.084V31.292C100.107 29.9 99.9393 28.676 99.6033 27.62C99.2673 26.564 98.7753 25.688 98.1273 24.992C97.4793 24.272 96.6753 23.732 95.7153 23.372C94.7793 23.012 93.6873 22.832 92.4393 22.832C91.1913 22.832 90.0873 23.012 89.1273 23.372C88.1913 23.732 87.3993 24.272 86.7513 24.992C86.1033 25.688 85.6113 26.564 85.2753 27.62C84.9633 28.676 84.8073 29.9 84.8073 31.292V32.084C84.8073 33.452 84.9633 34.664 85.2753 35.72C85.6113 36.752 86.1033 37.628 86.7513 38.348C87.3993 39.044 88.1913 39.572 89.1273 39.932C90.0873 40.292 91.1913 40.472 92.4393 40.472Z" fill="white"/>
<g filter="url(#filter0_d_1_7)">
<path d="M116.625 22.2831C116.242 22.2831 115.941 22.3369 115.723 22.4446C115.522 22.5522 115.377 22.7944 115.286 23.1712C115.212 23.5479 115.177 24.1489 115.177 24.9742V27.6114C115.177 28.2932 115.067 28.8852 114.848 29.3875C114.648 29.8719 114.411 30.2666 114.138 30.5716C113.864 30.8766 113.61 31.1098 113.372 31.2713C113.573 31.4148 113.81 31.6391 114.083 31.9441C114.374 32.231 114.63 32.5899 114.848 33.0204C115.067 33.4331 115.177 33.8996 115.177 34.4198V37.6491C115.177 38.4564 115.212 39.0484 115.286 39.4252C115.377 39.8019 115.522 40.0441 115.723 40.1518C115.941 40.2594 116.242 40.3133 116.625 40.3133H117.636V43.5964H115.477C114.967 43.5964 114.456 43.5873 113.946 43.5694C113.455 43.5515 112.999 43.4528 112.581 43.2734C112.161 43.112 111.824 42.798 111.569 42.3316C111.332 41.883 111.214 41.2282 111.214 40.3671V35.9268C111.214 35.3886 111.132 34.8863 110.968 34.4198C110.803 33.9354 110.557 33.5407 110.229 33.2358C109.902 32.9308 109.492 32.7783 109 32.7783V29.6566C109.492 29.6387 109.902 29.4862 110.229 29.1991C110.557 28.8941 110.803 28.5084 110.968 28.042C111.132 27.5576 111.214 27.0463 111.214 26.5081V22.2562C111.214 21.3951 111.332 20.7402 111.569 20.2917C111.806 19.8432 112.125 19.5292 112.525 19.3498C112.944 19.1704 113.409 19.0718 113.919 19.0538C114.429 19.0179 114.948 19 115.477 19H117.636V22.2831H116.625ZM137 31.5134C137 33.3434 136.772 35.0567 136.317 36.6534C135.879 38.2501 135.315 39.6674 134.623 40.9053C133.931 42.1611 133.192 43.1927 132.409 44L129.266 42.5737C129.976 41.7664 130.614 40.8156 131.179 39.7212C131.744 38.6447 132.19 37.4248 132.518 36.0614C132.846 34.6799 133.01 33.164 133.01 31.5134C133.01 29.8629 132.846 28.3559 132.518 26.9925C132.19 25.611 131.744 24.3821 131.179 23.3057C130.614 22.2113 129.976 21.2695 129.266 20.4801L132.409 19.0269C133.192 19.8342 133.931 20.8658 134.623 22.1216C135.315 23.3775 135.879 24.8037 136.317 26.4004C136.772 27.9792 137 29.6835 137 31.5134Z" fill="#986DFF"/>
</g>
<path d="M141.736 44V19.304H160.996V23.3H146.416V29.384H159.412V33.38H146.416V40.004H161.212V44H141.736Z" fill="white"/>
<defs>
<filter id="filter0_d_1_7" x="90.9" y="0.9" width="64.2" height="61.2" filterUnits="userSpaceOnUse" color-interpolation-filters="sRGB">
<feFlood flood-opacity="0" result="BackgroundImageFix"/>
<feColorMatrix in="SourceAlpha" type="matrix" values="0 0 0 0 0 0 0 0 0 0 0 0 0 0 0 0 0 0 127 0" result="hardAlpha"/>
<feOffset/>
<feGaussianBlur stdDeviation="9.05"/>
<feComposite in2="hardAlpha" operator="out"/>
<feColorMatrix type="matrix" values="0 0 0 0 0.596078 0 0 0 0 0.427451 0 0 0 0 1 0 0 0 1 0"/>
<feBlend mode="normal" in2="BackgroundImageFix" result="effect1_dropShadow_1_7"/>
<feBlend mode="normal" in="SourceGraphic" in2="effect1_dropShadow_1_7" result="shape"/>
</filter>
</defs>
</svg>
